<?xml version="1.0" encoding="utf-8"?>
<!-- Generator: Adobe Illustrator 26.5.0, SVG Export Plug-In . SVG Version: 6.00 Build 0)  -->
<svg version="1.1" id="Layer_1" xmlns="http://www.w3.org/2000/svg" xmlns:xlink="http://www.w3.org/1999/xlink" x="0px" y="0px"
	 viewBox="0 0 693.3 178.5" style="enable-background:new 0 0 693.3 178.5;" xml:space="preserve">
<style type="text/css">
	.st0{fill:#00A89B;}
	.st1{fill:#E9F5F3;}
	.st2{fill:#C0E5DF;}
	.st3{fill:#95D4CB;}
	.st4{fill:#FFFFFF;}
</style>
<g id="Layer_2_00000072982780173384691020000014318354060159467424_">
	<g id="Layer_3">
		<path class="st0" d="M252.1,102.6v14.5c-0.1,1.4,0.2,2.8,1,4c0.7,0.9,1.9,1.3,3.7,1.3c0.6,0,1.3-0.1,1.9-0.2
			c0.6-0.1,1.2-0.2,1.7-0.5l0.1,9.1c-1.1,0.3-2.2,0.6-3.3,0.8c-1.3,0.2-2.7,0.3-4,0.3c-2.2,0.1-4.3-0.3-6.4-0.9
			c-1.6-0.5-3-1.5-4.1-2.7c-1.1-1.2-1.8-2.7-2.2-4.3c-0.5-1.8-0.7-3.7-0.7-5.5v-16h-6.1v-9.3h6v-10H252v10h9v9.3H252.1z"/>
		<path class="st0" d="M278.9,81.2c0,0.9-0.2,1.9-0.6,2.7c-0.7,1.7-2.1,3-3.8,3.6c-0.9,0.4-1.8,0.5-2.8,0.5c-1.9,0.1-3.7-0.7-5.1-2
			c-2-1.9-2.6-4.9-1.5-7.4c0.3-0.8,0.9-1.6,1.5-2.2c0.7-0.6,1.4-1.1,2.3-1.5c0.9-0.4,1.8-0.6,2.8-0.6c0.9,0,1.9,0.2,2.8,0.5
			c0.8,0.3,1.6,0.8,2.3,1.4c0.6,0.6,1.2,1.3,1.5,2.2C278.7,79.4,278.9,80.3,278.9,81.2z M265.5,131.2V93.3H278v37.9H265.5z"/>
		<path class="st0" d="M334.7,131.2v-20.7c0-1-0.1-2.1-0.2-3.1c-0.1-0.9-0.4-1.8-0.8-2.5c-0.4-0.7-1-1.3-1.6-1.7
			c-0.8-0.5-1.8-0.7-2.7-0.7c-1,0-1.9,0.2-2.8,0.7c-0.8,0.5-1.5,1.1-2,1.8c-0.5,0.8-0.9,1.7-1.2,2.6c-0.3,1-0.4,2-0.4,3.1v20.4
			h-12.4v-21.6c0.1-1.8-0.4-3.6-1.3-5.2c-0.9-1.3-2.5-2-4.1-1.9c-1.8-0.1-3.6,0.8-4.6,2.4c-1.1,1.7-1.7,3.7-1.6,5.8v20.5h-12.5V93.3
			h12.1v5.2h0.2c0.5-0.8,1.1-1.6,1.7-2.4c0.7-0.8,1.6-1.5,2.5-2c1-0.6,2.1-1.1,3.3-1.4c1.3-0.4,2.6-0.5,3.9-0.5
			c2.4-0.1,4.8,0.5,7,1.7c1.9,1.1,3.5,2.8,4.5,4.8c1.2-1.9,2.9-3.5,4.8-4.7c2.2-1.2,4.7-1.8,7.2-1.8c2.2-0.1,4.5,0.4,6.5,1.4
			c1.7,0.9,3.1,2.1,4.2,3.6c1.1,1.5,1.9,3.2,2.3,5c0.5,1.8,0.7,3.6,0.7,5.4v23.4L334.7,131.2z"/>
		<path class="st0" d="M389.5,112.7v1.5c0,0.5,0,1-0.1,1.4H362c0.1,1,0.4,2,1,2.9c0.5,0.9,1.2,1.6,2,2.2c0.9,0.6,1.8,1.1,2.8,1.5
			c1,0.4,2.1,0.5,3.2,0.5c1.7,0.1,3.5-0.3,5-1.1c1.3-0.7,2.5-1.7,3.3-2.8l8.7,5.5c-1.8,2.6-4.2,4.7-7,6c-3.2,1.4-6.6,2.2-10.1,2.1
			c-2.7,0-5.5-0.4-8.1-1.3c-2.5-0.8-4.7-2.2-6.6-3.9c-1.9-1.7-3.5-3.9-4.5-6.3c-1.1-2.7-1.7-5.6-1.6-8.5c0-2.9,0.5-5.7,1.6-8.4
			c1-2.4,2.5-4.6,4.3-6.4c1.9-1.8,4.1-3.2,6.5-4.1c2.6-1,5.3-1.5,8.1-1.4c2.6,0,5.2,0.4,7.7,1.4c2.3,0.9,4.3,2.3,6,4.1
			c1.7,1.9,3.1,4.1,3.9,6.5C389.1,106.8,389.6,109.7,389.5,112.7z M378.1,107.9c0-1.9-0.6-3.7-1.9-5.1c-1.5-1.5-3.5-2.3-5.6-2.1
			c-1.1,0-2.3,0.2-3.4,0.6c-1,0.4-1.9,0.9-2.7,1.6c-0.8,0.6-1.4,1.4-1.8,2.3c-0.5,0.9-0.7,1.8-0.8,2.8H378.1z"/>
		<path class="st0" d="M422.4,131.2c-4,0-7.9-0.6-11.7-1.8c-3.4-1.1-6.5-2.9-9.1-5.4c-2.6-2.4-4.6-5.4-5.9-8.7
			c-1.5-3.7-2.2-7.7-2.1-11.8c0-3.9,0.7-7.7,2.2-11.2c1.4-3.3,3.5-6.3,6.2-8.7c2.7-2.5,5.8-4.4,9.3-5.7c7.5-2.7,15.7-2.7,23.1,0
			c3.4,1.3,6.5,3.2,9.2,5.6c2.6,2.4,4.7,5.4,6,8.7c1.5,3.5,2.2,7.3,2.2,11.1c0,2-0.2,3.9-0.7,5.8c-0.4,1.7-1,3.3-1.8,4.9
			c-0.7,1.4-1.6,2.7-2.6,3.9c-0.9,1-1.8,2-2.9,2.8v0.2l11.3-0.2v10.3L422.4,131.2z M438,103.7c0-2.2-0.4-4.4-1.1-6.5
			c-0.7-1.9-1.7-3.6-3.1-5.1c-1.4-1.4-3-2.6-4.8-3.3c-1.9-0.8-4-1.2-6.1-1.2c-2.1,0-4.1,0.4-6,1.2c-1.8,0.8-3.5,1.9-4.8,3.3
			c-1.4,1.5-2.5,3.2-3.2,5.1c-0.8,2.1-1.2,4.3-1.1,6.5c0,2.3,0.3,4.5,1.1,6.7c0.7,1.9,1.7,3.7,3.1,5.2c1.3,1.4,3,2.6,4.8,3.3
			c3.9,1.6,8.3,1.6,12.2,0c1.8-0.8,3.5-1.9,4.9-3.3c1.4-1.5,2.5-3.2,3.2-5.2C437.6,108.3,438,106,438,103.7z"/>
		<path class="st0" d="M498,112.1c0,2.9-0.5,5.7-1.7,8.4c-1.1,2.4-2.6,4.6-4.6,6.4c-2,1.8-4.2,3.1-6.7,4.1c-5.2,1.9-11,1.9-16.2,0
			c-2.5-0.9-4.7-2.3-6.7-4.1c-1.9-1.8-3.5-4-4.5-6.4c-1.1-2.6-1.7-5.5-1.7-8.4c0-2.9,0.5-5.7,1.7-8.4c1.1-2.4,2.6-4.5,4.5-6.3
			c1.9-1.8,4.2-3.1,6.7-4c5.3-1.8,11-1.8,16.2,0c2.5,0.9,4.7,2.2,6.7,4c1.9,1.8,3.5,3.9,4.6,6.3C497.5,106.4,498,109.2,498,112.1z
			 M486,112.1c0-1.2-0.2-2.4-0.6-3.6c-0.4-1.1-1-2.2-1.7-3.1c-0.8-0.9-1.7-1.6-2.8-2.2c-3.6-1.8-7.9-0.9-10.5,2.2
			c-0.7,0.9-1.3,1.9-1.7,3.1c-0.8,2.3-0.8,4.8,0,7.2c0.4,1.1,0.9,2.2,1.7,3.2c0.8,0.9,1.7,1.7,2.8,2.2c2.5,1.1,5.3,1.1,7.8,0
			c1.1-0.5,2-1.3,2.8-2.2c0.8-0.9,1.3-2,1.7-3.2C485.8,114.5,486,113.3,486,112.1z"/>
		<path class="st0" d="M527.7,131.2v-20.7c0-1-0.1-2-0.3-3c-0.2-0.9-0.4-1.8-0.9-2.6c-0.4-0.7-1-1.3-1.7-1.7
			c-0.9-0.5-1.8-0.7-2.8-0.7c-1,0-2,0.2-2.9,0.7c-0.8,0.4-1.5,1-2.1,1.8c-0.6,0.8-1,1.7-1.3,2.6c-0.3,1-0.4,2-0.4,3.1v20.5h-12.5
			V93.3h12.1v5.2h0.2c0.5-0.9,1.1-1.7,1.8-2.4c0.8-0.8,1.6-1.5,2.6-2c1-0.6,2.1-1,3.2-1.4c1.2-0.4,2.5-0.5,3.7-0.5
			c2.2-0.1,4.4,0.4,6.5,1.4c1.7,0.8,3.2,2,4.3,3.5c1.1,1.5,1.9,3.2,2.3,5c0.5,1.8,0.7,3.7,0.7,5.6v23.4L527.7,131.2z"/>
		<path class="st0" d="M570,131.2v-20.7c0-1-0.1-2-0.3-3c-0.2-0.9-0.5-1.8-0.9-2.6c-0.4-0.7-1-1.3-1.7-1.7c-0.8-0.5-1.8-0.7-2.8-0.7
			c-1,0-2,0.2-2.9,0.7c-0.8,0.4-1.5,1-2.1,1.8c-0.6,0.8-1,1.7-1.2,2.6c-0.3,1-0.4,2-0.4,3.1v20.5h-12.6V93.3h12.1v5.2h0.2
			c0.5-0.9,1.1-1.7,1.8-2.4c0.8-0.8,1.6-1.5,2.6-2c1-0.6,2.1-1,3.3-1.4c1.2-0.4,2.5-0.5,3.7-0.5c2.2-0.1,4.4,0.4,6.5,1.4
			c1.7,0.8,3.1,2,4.3,3.5c1.1,1.5,1.9,3.2,2.4,5c0.5,1.8,0.7,3.7,0.7,5.6v23.4L570,131.2z"/>
		<path class="st0" d="M626.4,112.7v1.5c0,0.5,0,1-0.1,1.4h-27.4c0.1,1,0.4,2,1,2.9c0.5,0.9,1.2,1.6,2,2.2c1.7,1.3,3.8,2,6,2
			c1.7,0.1,3.5-0.3,5-1.1c1.3-0.7,2.5-1.7,3.3-2.8l8.7,5.5c-1.8,2.6-4.2,4.7-7,6c-3.2,1.4-6.6,2.2-10.1,2.1c-2.7,0-5.5-0.4-8.1-1.3
			c-2.5-0.8-4.7-2.2-6.7-3.9c-1.9-1.7-3.5-3.9-4.5-6.3c-1.1-2.7-1.7-5.6-1.6-8.5c0-2.9,0.5-5.7,1.6-8.4c1-2.4,2.5-4.6,4.3-6.4
			c1.9-1.8,4.1-3.2,6.5-4.1c2.6-1,5.3-1.5,8.1-1.4c2.6,0,5.2,0.4,7.7,1.4c2.3,0.9,4.3,2.3,6,4.1c1.7,1.9,3.1,4,3.9,6.4
			C626,106.8,626.5,109.7,626.4,112.7z M615,107.9c0-1.9-0.6-3.7-1.9-5.1c-1.5-1.5-3.5-2.3-5.6-2.1c-1.1,0-2.3,0.2-3.3,0.6
			c-1,0.4-1.9,0.9-2.7,1.6c-0.8,0.6-1.4,1.4-1.8,2.3c-0.5,0.9-0.7,1.8-0.8,2.8H615z"/>
		<path class="st0" d="M657.3,105.6c-0.8-1-1.8-1.7-2.9-2.2c-1.2-0.5-2.4-0.8-3.7-0.8c-1.2,0-2.5,0.3-3.6,0.8c-1,0.5-2,1.2-2.7,2.1
			c-0.8,0.9-1.4,1.9-1.8,3.1c-0.4,1.2-0.7,2.5-0.7,3.7c0,1.3,0.2,2.5,0.6,3.7c0.4,1.1,1,2.2,1.8,3.1c0.8,0.9,1.7,1.6,2.8,2.1
			c1.2,0.5,2.4,0.8,3.7,0.8c1.3,0,2.6-0.2,3.8-0.7c1.2-0.4,2.2-1.1,3-2.1l6.9,8.4c-1.7,1.6-3.8,2.8-6.1,3.6
			c-2.5,0.9-5.2,1.3-7.9,1.3c-2.8,0-5.7-0.4-8.4-1.4c-2.5-0.9-4.8-2.2-6.8-4c-1.9-1.8-3.5-3.9-4.5-6.3c-2.2-5.4-2.2-11.4,0-16.8
			c1-2.4,2.6-4.6,4.5-6.3c2-1.8,4.3-3.1,6.8-4c2.7-0.9,5.5-1.4,8.3-1.4c1.4,0,2.7,0.1,4.1,0.4c1.3,0.2,2.6,0.6,3.9,1
			c1.2,0.4,2.3,1,3.4,1.6c1,0.6,1.9,1.3,2.7,2.1L657.3,105.6z"/>
		<path class="st0" d="M684.4,102.6v14.5c-0.1,1.4,0.2,2.8,1,4c0.7,0.9,1.9,1.3,3.7,1.3c0.6,0,1.3-0.1,1.9-0.2
			c0.6-0.1,1.2-0.2,1.7-0.5l0.2,9.1c-1.1,0.3-2.2,0.6-3.3,0.8c-1.3,0.2-2.6,0.3-4,0.3c-2.2,0.1-4.3-0.3-6.4-0.9
			c-1.6-0.5-3-1.5-4.1-2.7c-1.1-1.2-1.8-2.7-2.2-4.3c-0.5-1.8-0.7-3.7-0.7-5.5v-16h-6.1v-9.3h6v-10h12.2v10h8.9v9.3H684.4z"/>
	</g>
</g>
<g id="Layer_2_00000164476326992345965880000005068213797403413124_">
	<g id="Layer_3_00000101815745788683557870000010874335497017693107_">
		<path class="st1" d="M187.4,133.2l-6.7,14.2l15.2,5.5l7.2-15.2L187.4,133.2L187.4,133.2z"/>
		<path class="st2" d="M180.7,147.4l3.2,7.2l14.2,5.2l-2.2-7L180.7,147.4L180.7,147.4z"/>
		<path class="st3" d="M195.9,152.8l2.2,7l7.7-14.9l-2.7-7.2L195.9,152.8L195.9,152.8z"/>
		<path class="st4" d="M170.1,117.6c-0.1,0-0.2,0-0.2-0.1l-5-2.8c-0.1-0.1-0.2-0.2-0.2-0.4c0-0.2,0-0.3,0.1-0.4l4.1-4.1
			c0.1-0.1,0.2-0.2,0.4-0.2c0.1,0,0.1,0,0.2,0l5.1,2.5c0.1,0.1,0.3,0.2,0.3,0.4c0,0.2,0,0.3-0.1,0.4l-4.2,4.4
			C170.4,117.6,170.3,117.6,170.1,117.6z"/>
		<path d="M169.2,110.2l5.1,2.5l-4.2,4.4l-5-2.8L169.2,110.2 M169.2,109.2c-0.3,0-0.5,0.1-0.7,0.3l-4.1,4.2
			c-0.2,0.2-0.3,0.5-0.3,0.8c0,0.3,0.2,0.6,0.5,0.7l5,2.7c0.1,0.1,0.3,0.1,0.5,0.1c0.3,0,0.5-0.1,0.7-0.3l4.2-4.4
			c0.2-0.2,0.3-0.6,0.3-0.9c-0.1-0.3-0.3-0.6-0.6-0.7l-5.1-2.5C169.5,109.3,169.4,109.2,169.2,109.2L169.2,109.2z"/>
		<path class="st2" d="M165.1,114.4l1,4.5l4.9,2.6l-1-4.3L165.1,114.4L165.1,114.4z"/>
		<path class="st3" d="M171.1,121.5l4.2-4.7l-0.9-4l-4.2,4.4C170.1,117.1,171.1,121.5,171.1,121.5z"/>
		<path class="st1" d="M208.7,93.9l-8.5-0.9l-0.1,8.8l9.1,0.9L208.7,93.9z"/>
		<path class="st2" d="M200.2,93l-3.1,3l-0.1,8.2l3.2-2.4L200.2,93z"/>
		<path class="st3" d="M200.1,101.8l-3.2,2.4l9.1,1.2l3.2-2.7L200.1,101.8L200.1,101.8z"/>
		<path class="st1" d="M119.8,0.9L111.3,0l-0.1,8.8l9.1,0.9C120.4,9.7,119.8,0.9,119.8,0.9z"/>
		<path class="st2" d="M111.3,0l-3.1,3l-0.1,8.2l3.2-2.4C111.3,8.8,111.3,0,111.3,0z"/>
		<path class="st3" d="M111.3,8.8l-3.2,2.4l9.1,1.2l3.2-2.7L111.3,8.8z"/>
		<path class="st2" d="M54.1,27l-16.8-5.8l-8.1,15l17.3,6L54.1,27z"/>
		<path class="st1" d="M54.1,27l2.5,7.5l-7.4,15.2l-2.7-7.6L54.1,27z"/>
		<path class="st3" d="M49.2,49.7l-15.9-5.5l-4.1-8l17.3,6C46.5,42.1,49.2,49.7,49.2,49.7z"/>
		<path class="st2" d="M120,28.9c-37.7,1.9-70.5,36.9-73.3,78.2s25.4,73.2,63,71.3s70.5-36.9,73.4-78.2S157.7,27,120,28.9z"/>
		<path class="st4" d="M103.2,163c-15.5,0.9-30.5-5.3-40.7-17c-9.9-11.2-15.5-27.2-14.2-45.2c1.3-17.5,8.5-34.1,20.6-46.9
			c11.6-12.3,26.9-20.4,43.3-21.2c15.5-0.9,30.5,5.3,40.7,17c9.9,11.2,15.5,27.2,14.2,45.2c-1.3,17.5-8.5,34.1-20.6,46.9
			C135,154.1,119.6,162.1,103.2,163z"/>
		<path class="st0" d="M88.6,90.1l16.3,13.7l0.2,0.1l0.1,0.1c1.4,0.8,3.4,0.2,4.9-1.4l0.1-0.1L133.2,74c1.3-1.5,1.5-3.7,0.4-4.8
			s-3-0.7-4.3,0.8l-21.4,24.2L93.4,83.3c-1.3-1.1-3.5-0.4-4.9,1.4S87.2,89,88.6,90.1z M66.4,100.1c0.1-1,0.2-2,0.3-3l-10.8,0.6
			c-0.1,1-0.2,2-0.3,3s-0.1,2-0.1,3l10.8-0.6C66.3,102.1,66.4,101.1,66.4,100.1z M88.3,60.8c1.1-0.8,2.1-1.5,3.3-2.1l0.4-0.2
			l-4.7-10c-1.4,0.8-2.8,1.7-4.1,2.7l4.7,10L88.3,60.8z M63.4,73.9l9,5.4l2.6-4.4l-9-5.4C65,70.9,64.2,72.4,63.4,73.9z M143.2,117.2
			c-0.6,1.2-1.3,2.4-2.1,3.5l-0.3,0.4l9,5.4c0.9-1.4,1.8-2.9,2.6-4.4l-8.9-5.5L143.2,117.2z M69.7,120.8l-0.2-0.4l-9.8,6.4
			c0.6,1.4,1.3,2.8,2,4.2l9.8-6.4l-0.2-0.4C70.7,123.1,70.1,122,69.7,120.8z M83,137.5l-0.4-0.3l-6.1,10.6c1.2,0.8,2.5,1.6,3.8,2.3
			l6.1-10.6l-0.4-0.2C85,138.7,84,138.1,83,137.5z M129.4,56.6l3.8,2.3l6.1-10.6c-1.2-0.9-2.5-1.6-3.8-2.3L129.4,56.6z M102,143.5
			l-0.8,11.9c0.9,0,1.8,0,2.7,0c0.9,0,1.8-0.1,2.7-0.2l0.8-11.9v-0.1L102,143.5L102,143.5L102,143.5z M113.7,52.6l0.8-11.9h-2.7
			c-0.9,0-1.8,0.1-2.7,0.2l-0.8,11.9V53l5.4-0.3L113.7,52.6z M123.8,137.6l4.7,10c1.4-0.8,2.8-1.7,4.1-2.7l-4.7-10L123.8,137.6z
			 M156,69.2c-0.6-1.4-1.3-2.8-2-4.2l-9.8,6.4l2,4.2L156,69.2z M160.2,92.4L149.4,93h-0.1l-0.4,6h0.1l10.8-0.5c0.1-1,0.2-2,0.3-3
			S160.2,93.4,160.2,92.4L160.2,92.4z"/>
		<path class="st0" d="M113,23.3c-37.7,1.9-70.5,36.9-73.3,78.2s25.4,73.2,63,71.3s70.5-36.9,73.3-78.2S150.7,21.4,113,23.3
			L113,23.3z M103.3,163.1c-15.5,0.9-30.5-5.3-40.7-17C52.8,135,47.2,119,48.5,101c1.3-17.5,8.6-34.1,20.6-46.9
			C80.6,41.8,96,33.8,112.4,32.9c15.5-0.9,30.5,5.3,40.7,17C163,61.1,168.5,77,167.3,95c-1.3,17.6-8.5,34.2-20.6,47
			C135.1,154.3,119.8,162.3,103.3,163.1L103.3,163.1z"/>
		<path class="st2" d="M173.1,73.9l11.3-20.9l-18.3-17.6l-10.4,21.5C155.7,56.9,173.1,73.9,173.1,73.9z"/>
		<path class="st3" d="M173.1,73.9l18.8-4.4l10.6-20.7l-18.1,4.2L173.1,73.9z"/>
		<path class="st1" d="M202.5,48.7l-19.9-17.2l-16.5,3.9l18.3,17.6C184.4,52.9,202.5,48.7,202.5,48.7z M25.3,113.7l26.2-2.5L36,90.4
			L9.8,92.9C9.8,92.9,25.3,113.7,25.3,113.7z"/>
		<path class="st2" d="M9.8,92.9L0,118.2l15.4,20.5l9.8-25.3L9.8,92.9z"/>
		<path class="st3" d="M41.5,136.5l-26.2,2.5l9.7-25.1l26.8-2.8C51.8,111.1,41.5,136.5,41.5,136.5z"/>
	</g>
</g>
</svg>
